<svg xmlns="http://www.w3.org/2000/svg" viewBox="0 0 64 64">
  <defs>
    <linearGradient id="liquid-grad" x1="0%" y1="0%" x2="0%" y2="100%">
      <stop offset="0%" stop-color="#38b2ac" />
      <stop offset="100%" stop-color="#2c7a7b" />
    </linearGradient>
  </defs>
  
  <!-- Glass Contour -->
  <path d="M24 4 L24 20 L8 56 C6 60, 10 62, 14 62 L50 62 C54 62, 58 60, 56 56 L40 20 L40 4 Z" 
        fill="none" stroke="#2d3748" stroke-width="2" stroke-linejoin="round"/>
        
  <!-- Liquid -->
  <path d="M25 22 L39 22 L54 56 C55.5 59, 52.5 61, 50 61 L14 61 C11.5 61, 8.5 59, 10 56 Z" 
        fill="url(#liquid-grad)" opacity="0.9"/>
  
  <!-- Bubbles -->
  <circle cx="32" cy="45" r="3" fill="white" opacity="0.6"/>
  <circle cx="22" cy="52" r="2" fill="white" opacity="0.5"/>
  <circle cx="42" cy="54" r="2.5" fill="white" opacity="0.5"/>
  <circle cx="30" cy="30" r="1.5" fill="white" opacity="0.4"/>

  <!-- Rim -->
  <rect x="20" y="2" width="24" height="4" rx="1" fill="#2d3748"/>
</svg>